<svg width="18" height="19" fill="none" xmlns="http://www.w3.org/2000/svg"><path d="M9 1.762c1.207 0 1.995.003 2.364.009.37.006.794.02 1.275.044.433.023.779.067 1.037.132a7 7 0 0 1 .633.184c.21.082.395.176.553.282a3.8 3.8 0 0 1 .484.386 2.842 2.842 0 0 1 .668 1.037c.058.153.12.358.184.616a5.7 5.7 0 0 1 .132 1.054l.035 1.266c.012.375.018 1.166.018 2.373 0 1.195-.006 1.98-.018 2.356l-.035 1.265a5.805 5.805 0 0 1-.132 1.055 5.48 5.48 0 0 1-.184.615 3.146 3.146 0 0 1-.282.563 2.858 2.858 0 0 1-.386.474 3.21 3.21 0 0 1-.484.404c-.158.106-.342.2-.553.282a7 7 0 0 1-.633.184c-.258.065-.604.103-1.037.114-.48.024-.906.039-1.275.044-.369.006-1.157.01-2.364.01-1.195 0-1.98-.004-2.355-.01-.375-.005-.803-.02-1.284-.044a4.992 4.992 0 0 1-1.037-.114 6.962 6.962 0 0 1-.633-.184 3.403 3.403 0 0 1-.545-.282 2.485 2.485 0 0 1-.474-.404 2.486 2.486 0 0 1-.404-.475 3.395 3.395 0 0 1-.282-.544 6.942 6.942 0 0 1-.184-.633c-.065-.258-.103-.604-.115-1.037a39.22 39.22 0 0 1-.043-1.284c-.006-.374-.01-1.16-.01-2.355 0-1.207.004-1.998.01-2.373.005-.375.02-.797.044-1.266.011-.433.05-.779.114-1.037a7 7 0 0 1 .184-.633c.082-.21.176-.395.282-.553a3.87 3.87 0 0 1 .386-.484 3.89 3.89 0 0 1 .484-.386c.158-.106.342-.2.553-.282a7 7 0 0 1 .633-.184 5.722 5.722 0 0 1 1.037-.132c.48-.023.906-.038 1.275-.044.369-.006 1.157-.009 2.364-.009ZM9 .145c-1.219 0-2.021.003-2.408.009-.387.006-.82.02-1.301.044a8.37 8.37 0 0 0-1.24.14c-.345.07-.658.164-.94.282a4.727 4.727 0 0 0-.843.422c-.258.164-.51.369-.756.615a4.467 4.467 0 0 0-.616.756 4.705 4.705 0 0 0-.421.843 5.091 5.091 0 0 0-.282.94 8.37 8.37 0 0 0-.14 1.24c-.024.48-.038.914-.044 1.3C.003 7.125 0 7.927 0 9.146s.003 2.021.009 2.408c.006.387.02.82.044 1.301.023.48.07.894.14 1.24.07.345.164.658.282.94.117.304.257.586.421.843.165.258.37.51.616.756s.498.451.756.616c.257.164.539.304.843.421.282.106.595.197.94.273.346.076.76.126 1.24.15.48.023.914.037 1.3.043.388.006 1.19.009 2.409.009 1.219 0 2.021-.003 2.408-.009.387-.006.82-.02 1.301-.044.48-.023.893-.073 1.24-.15.345-.075.658-.166.94-.272.293-.117.568-.257.826-.422.258-.164.515-.369.773-.615a4.46 4.46 0 0 0 .616-.756c.164-.257.304-.539.421-.843.106-.282.197-.595.273-.94.076-.346.12-.76.132-1.24.023-.48.038-.914.044-1.3.006-.388.008-1.19.008-2.409 0-1.219-.002-2.021-.008-2.408s-.02-.82-.044-1.301a6.589 6.589 0 0 0-.132-1.24 6.931 6.931 0 0 0-.273-.94 5.307 5.307 0 0 0-.421-.835 4.292 4.292 0 0 0-.616-.764 4.468 4.468 0 0 0-.756-.615A4.726 4.726 0 0 0 14.89.62a6.936 6.936 0 0 0-.94-.273 7.55 7.55 0 0 0-1.24-.15c-.48-.023-.914-.037-1.3-.043A202.7 202.7 0 0 0 9 .145Zm0 4.377c-.633 0-1.23.123-1.793.37a4.53 4.53 0 0 0-2.46 2.46 4.424 4.424 0 0 0-.37 1.793c0 .633.123 1.23.37 1.793a4.53 4.53 0 0 0 2.46 2.46c.563.247 1.16.37 1.793.37s1.23-.123 1.793-.37a4.528 4.528 0 0 0 2.46-2.46c.247-.563.37-1.16.37-1.793s-.123-1.23-.37-1.793a4.53 4.53 0 0 0-2.46-2.46A4.424 4.424 0 0 0 9 4.521Zm0 7.629a2.897 2.897 0 0 1-2.127-.879 2.897 2.897 0 0 1-.879-2.127c0-.832.293-1.541.88-2.127A2.897 2.897 0 0 1 9 6.14c.832 0 1.541.293 2.127.88.586.585.879 1.294.879 2.126 0 .832-.293 1.541-.879 2.127A2.898 2.898 0 0 1 9 12.151Zm5.889-7.805c0 .293-.106.545-.317.756-.21.211-.468.316-.773.316-.293 0-.545-.105-.756-.316a1.031 1.031 0 0 1-.316-.756c0-.304.105-.562.316-.773a1.03 1.03 0 0 1 .756-.317c.305 0 .562.106.773.317.211.21.317.469.317.773Z" fill="#fff"/></svg>