<svg width="29" height="28" fill="none" xmlns="http://www.w3.org/2000/svg"><rect x=".95" y=".565" width="27.19" height="27.19" rx="13.595" fill="#F8DB01"/><path d="M20.433 6.872c.083-.027.166-.027.276-.027.468 0 .853.385.88.854v9.693c0 .992-1.183 1.763-2.643 1.763-1.46 0-2.644-.771-2.644-1.763 0-.963 1.185-1.762 2.644-1.762.303.027.578.055.881.11v-5.067l-7.05 2.065v6.417c0 .991-1.184 1.762-2.643 1.762-1.46 0-2.644-.77-2.644-1.762 0-.964 1.184-1.763 2.644-1.763.303.028.578.056.88.11v-7.187a.92.92 0 0 1 .607-.854l8.812-2.589Z" fill="#fff"/></svg>