<svg width="567" height="648" fill="none" xmlns="http://www.w3.org/2000/svg"><path fill-rule="evenodd" clip-rule="evenodd" d="m283 0 70 40v80l-70 40-70-40V40l70-40ZM70 122l70 40v80l-70 40-70-40v-80l70-40Zm142 0 70 40v80l-70 40-70-40v-80l70-40Zm-71 122 70 40v80l-70 40-70-40v-80l70-40Zm142 0 70 40v80l-70 40-70-40v-80l70-40Zm212 40-70-40-70 40v80l70 40 70-40v-80ZM282 406l-70-40-70 40v80l70 40 70-40v-80Zm144 242 70-40v-80l-70-40-70 40v80l70 40Zm-215-40-70 40-70-40v-80l70-40 70 40v80Zm-71-202-70-40-70 40v80l70 40 70-40v-80Zm214-284 70 40v80l-70 40-70-40v-80l70-40Zm70 284-70-40-70 40v80l70 40 70-40v-80Zm72-284 70 40v80l-70 40-70-40v-80l70-40Zm71 284-70-40-70 40v80l70 40 70-40v-80ZM495 40 425 0l-70 40v80l70 40 70-40V40Z" fill="#000"/></svg>