<svg width="13" height="14" fill="none" xmlns="http://www.w3.org/2000/svg"><path d="M11.223 1.95c1.066.939 1.65 2.996 1.244 6.271-.381 3.149-2.768 3.453-3.174 3.605-.203.051-1.803.458-3.885.28-.228.28-.533.61-.762.863-.406.432-.634.838-1.066.711-.355-.127-.33-.66-.33-.66v-1.295C.203 10.862.254 7.688.28 6.012c.025-1.701.355-3.047 1.294-3.986C3.25.502 6.678.706 6.678.706c2.894 0 4.215.964 4.545 1.244Zm.33 6.017c.355-2.717-.102-4.57-1.016-5.357-.28-.229-1.447-.99-3.91-.99 0 0-2.92-.204-4.342 1.091-.787.787-1.04 1.93-1.066 3.352-.026 1.396-.178 4.088 2.386 4.799v2.183c0 .28.153.28.28.153.406-.432 1.726-2.006 1.726-2.006 1.778.101 3.174-.254 3.327-.28.355-.127 2.31-.304 2.615-2.945Zm-3.53-2.031c.026.203-.304.228-.304 0-.051-.559-.305-.813-.838-.863-.229 0-.203-.33.025-.33.711.05 1.092.457 1.117 1.193Zm.534.28c.025-1.067-.66-1.93-1.93-2.007-.229-.025-.203-.355.025-.33 1.473.102 2.26 1.117 2.235 2.336 0 .229-.33.203-.33 0Zm1.193.33c0 .228-.33.228-.33 0-.025-2.057-1.397-3.175-3.072-3.2-.203 0-.203-.33 0-.33 1.879.025 3.377 1.32 3.402 3.53Zm-.305 2.488v.025c-.254.482-.787 1.016-1.295.838h-.025c-.533-.152-1.777-.813-2.59-1.447A7.049 7.049 0 0 1 4.47 7.383a8.101 8.101 0 0 1-.787-1.193c-.534-.965-.66-1.422-.66-1.422-.178-.508.355-1.041.837-1.295h.026c.228-.127.457-.102.584.102 0 0 .33.355.457.558.127.153.304.432.38.584.153.28.077.559-.076.686l-.304.254c-.153.127-.153.355-.153.355s.457 1.701 2.159 2.133c0 0 .228.025.355-.127l.229-.305a.55.55 0 0 1 .685-.101c.381.203.838.533 1.168.838.178.152.203.355.076.584Z" fill="#454545"/></svg>