<svg width="12" height="12" fill="none" xmlns="http://www.w3.org/2000/svg"><path d="M9.91 2.168c1.067 1.067 1.727 2.463 1.727 3.987 0 3.097-2.59 5.636-5.713 5.636-.94 0-1.854-.254-2.692-.685l-2.97.762.787-2.92a5.643 5.643 0 0 1-.762-2.819c0-3.097 2.54-5.636 5.637-5.636 1.523 0 2.945.609 3.986 1.675Zm-3.986 8.658c2.59 0 4.748-2.107 4.748-4.671 0-1.27-.533-2.438-1.422-3.327a4.629 4.629 0 0 0-3.3-1.37c-2.59 0-4.698 2.107-4.698 4.671 0 .889.254 1.752.71 2.514l.128.178-.483 1.726 1.778-.482.152.101c.736.432 1.549.66 2.387.66Zm2.59-3.503c.127.076.228.101.254.177.05.051.05.33-.077.66s-.685.635-.94.66c-.456.077-.812.051-1.7-.355-1.422-.61-2.336-2.031-2.412-2.107-.076-.102-.559-.762-.559-1.473 0-.685.356-1.015.482-1.168a.476.476 0 0 1 .381-.178h.254c.102 0 .203-.025.33.254.102.28.407.965.432 1.041.025.077.05.153 0 .254-.254.533-.559.508-.406.762.558.94 1.092 1.27 1.93 1.676.126.076.203.05.304-.026.076-.101.356-.431.432-.558.101-.153.203-.127.33-.076.127.05.812.38.965.457Z" fill="#25D366"/></svg>