<svg width="121" height="13" viewBox="0 0 121 13" fill="none" xmlns="http://www.w3.org/2000/svg">
<mask id="path-1-inside-1_101_42352" fill="white">
<path d="M0.333496 1.93942C0.333496 1.32989 0.880814 0.866244 1.48205 0.96645L60.1691 10.7476C60.2779 10.7658 60.389 10.7658 60.4979 10.7476L119.185 0.96645C119.786 0.866244 120.333 1.32989 120.333 1.93942C120.333 2.42161 119.985 2.83313 119.509 2.9124L60.6623 12.7202C60.4446 12.7565 60.2224 12.7565 60.0047 12.7202L1.15773 2.9124C0.682101 2.83313 0.333496 2.42161 0.333496 1.93942Z"/>
</mask>
<path d="M60.6623 12.7202L61.3199 16.6658L60.6623 12.7202ZM60.0047 12.7202L59.3471 16.6658L60.0047 12.7202ZM60.1691 10.7476L60.8267 6.80205L60.1691 10.7476ZM60.4979 10.7476L59.8403 6.80205L60.4979 10.7476ZM119.185 0.96645L119.843 4.91203L119.185 0.96645ZM0.824456 4.91203L59.5115 14.6932L60.8267 6.80205L2.13965 -2.97913L0.824456 4.91203ZM61.1555 14.6932L119.843 4.91203L118.527 -2.97913L59.8403 6.80205L61.1555 14.6932ZM118.852 -1.03318L60.0047 8.77465L61.3199 16.6658L120.167 6.85797L118.852 -1.03318ZM60.6623 8.77465L1.81532 -1.03318L0.500132 6.85797L59.3471 16.6658L60.6623 8.77465ZM60.0047 8.77465C60.2224 8.73837 60.4446 8.73837 60.6623 8.77465L59.3471 16.6658C60.0002 16.7746 60.6668 16.7747 61.3199 16.6658L60.0047 8.77465ZM59.5115 14.6932C60.0557 14.7839 60.6112 14.7839 61.1555 14.6932L59.8403 6.80205C60.1669 6.74762 60.5002 6.74763 60.8267 6.80205L59.5115 14.6932ZM-3.6665 1.93942C-3.6665 4.37697 -1.90424 6.45724 0.500132 6.85797L1.81532 -1.03318C3.26845 -0.790992 4.3335 0.466253 4.3335 1.93942H-3.6665ZM116.333 1.93942C116.333 0.466255 117.399 -0.790992 118.852 -1.03318L120.167 6.85797C122.571 6.45724 124.333 4.37697 124.333 1.93942H116.333ZM124.333 1.93942C124.333 -1.14185 121.567 -3.48569 118.527 -2.97913L119.843 4.91203C118.006 5.21818 116.333 3.80164 116.333 1.93942H124.333ZM4.3335 1.93942C4.3335 3.80165 2.66134 5.21817 0.824456 4.91203L2.13965 -2.97913C-0.899717 -3.48569 -3.6665 -1.14187 -3.6665 1.93942H4.3335Z" fill="#F8DB01" mask="url(#path-1-inside-1_101_42352)"/>
</svg>
