<svg width="15" height="15" viewBox="0 0 15 15" fill="none" xmlns="http://www.w3.org/2000/svg">
<path d="M7.53906 14.3474C3.76621 14.3474 0.709375 11.2905 0.709375 7.51768C0.709375 3.74482 3.76621 0.687988 7.53906 0.687988C11.3119 0.687988 14.3688 3.74482 14.3688 7.51768C14.3688 11.2905 11.3119 14.3474 7.53906 14.3474ZM10.7336 6.30596H7.53906V4.37822C7.53906 4.07529 7.18105 3.91006 6.96074 4.13037L3.82129 7.29736C3.68359 7.43506 3.68359 7.62783 3.82129 7.76553L6.96074 10.9325C7.18105 11.1253 7.53906 10.9876 7.53906 10.6847V8.72939H10.7336C10.8988 8.72939 11.0641 8.5917 11.0641 8.39893V6.63643C11.0641 6.47119 10.8988 6.30596 10.7336 6.30596Z" fill="white"/>
</svg>
