<svg width="18" height="19" viewBox="0 0 18 19" fill="none" xmlns="http://www.w3.org/2000/svg">
<path d="M9 1.76221C10.207 1.76221 10.9951 1.76514 11.3643 1.771C11.7334 1.77686 12.1582 1.7915 12.6387 1.81494C13.0723 1.83838 13.418 1.88232 13.6758 1.94678C13.9336 2.01123 14.1445 2.07275 14.3086 2.13135C14.5195 2.21338 14.7041 2.30713 14.8623 2.4126C15.0205 2.51807 15.1816 2.64697 15.3457 2.79932C15.498 2.95166 15.627 3.10986 15.7324 3.27393C15.8379 3.43799 15.9316 3.62549 16.0137 3.83643C16.0723 3.98877 16.1338 4.19385 16.1982 4.45166C16.2627 4.70947 16.3066 5.06104 16.3301 5.50635C16.3418 5.9751 16.3535 6.39697 16.3652 6.77197C16.377 7.14697 16.3828 7.93799 16.3828 9.14502C16.3828 10.3403 16.377 11.1255 16.3652 11.5005C16.3535 11.8755 16.3418 12.2974 16.3301 12.7661C16.3066 13.2114 16.2627 13.563 16.1982 13.8208C16.1338 14.0786 16.0723 14.2837 16.0137 14.436C15.9316 14.647 15.8379 14.8345 15.7324 14.9985C15.627 15.1626 15.498 15.3208 15.3457 15.4731C15.1816 15.6372 15.0205 15.772 14.8623 15.8774C14.7041 15.9829 14.5195 16.0767 14.3086 16.1587C14.1445 16.2173 13.9336 16.2788 13.6758 16.3433C13.418 16.4077 13.0723 16.4458 12.6387 16.4575C12.1582 16.481 11.7334 16.4956 11.3643 16.5015C10.9951 16.5073 10.207 16.5103 9 16.5103C7.80469 16.5103 7.01953 16.5073 6.64453 16.5015C6.26953 16.4956 5.8418 16.481 5.36133 16.4575C4.92773 16.4458 4.58203 16.4077 4.32422 16.3433C4.06641 16.2788 3.85547 16.2173 3.69141 16.1587C3.49219 16.0767 3.31055 15.9829 3.14648 15.8774C2.98242 15.772 2.82422 15.6372 2.67188 15.4731C2.50781 15.3208 2.37305 15.1626 2.26758 14.9985C2.16211 14.8345 2.06836 14.6528 1.98633 14.4536C1.92773 14.2896 1.86621 14.0786 1.80176 13.8208C1.7373 13.563 1.69922 13.2173 1.6875 12.7837C1.66406 12.3032 1.64941 11.8755 1.64355 11.5005C1.6377 11.1255 1.63477 10.3403 1.63477 9.14502C1.63477 7.93799 1.6377 7.14697 1.64355 6.77197C1.64941 6.39697 1.66406 5.9751 1.6875 5.50635C1.69922 5.07275 1.7373 4.72705 1.80176 4.46924C1.86621 4.21143 1.92773 4.00049 1.98633 3.83643C2.06836 3.62549 2.16211 3.44092 2.26758 3.28271C2.37305 3.12451 2.50195 2.96338 2.6543 2.79932C2.81836 2.64697 2.97949 2.51807 3.1377 2.4126C3.2959 2.30713 3.48047 2.21338 3.69141 2.13135C3.85547 2.07275 4.06641 2.01123 4.32422 1.94678C4.58203 1.88232 4.92773 1.83838 5.36133 1.81494C5.8418 1.7915 6.2666 1.77686 6.63574 1.771C7.00488 1.76514 7.79297 1.76221 9 1.76221ZM9 0.14502C7.78125 0.14502 6.97852 0.147949 6.5918 0.153809C6.20508 0.159668 5.77148 0.174316 5.29102 0.197754C4.81055 0.221191 4.39746 0.268066 4.05176 0.338379C3.70605 0.408691 3.39258 0.502441 3.11133 0.619629C2.80664 0.736816 2.52539 0.877441 2.26758 1.0415C2.00977 1.20557 1.75781 1.41064 1.51172 1.65674C1.26562 1.90283 1.06055 2.15479 0.896484 2.4126C0.732422 2.67041 0.591797 2.95166 0.474609 3.25635C0.357422 3.5376 0.263672 3.85107 0.193359 4.19678C0.123047 4.54248 0.0761719 4.95557 0.0527344 5.43604C0.0292969 5.9165 0.0146484 6.3501 0.00878906 6.73682C0.00292969 7.12354 0 7.92627 0 9.14502C0 10.3638 0.00292969 11.1665 0.00878906 11.5532C0.0146484 11.9399 0.0292969 12.3735 0.0527344 12.854C0.0761719 13.3345 0.123047 13.7476 0.193359 14.0933C0.263672 14.439 0.357422 14.7524 0.474609 15.0337C0.591797 15.3384 0.732422 15.6196 0.896484 15.8774C1.06055 16.1353 1.26562 16.3872 1.51172 16.6333C1.75781 16.8794 2.00977 17.0845 2.26758 17.2485C2.52539 17.4126 2.80664 17.5532 3.11133 17.6704C3.39258 17.7759 3.70605 17.8667 4.05176 17.9429C4.39746 18.019 4.81055 18.0688 5.29102 18.0923C5.77148 18.1157 6.20508 18.1304 6.5918 18.1362C6.97852 18.1421 7.78125 18.145 9 18.145C10.2188 18.145 11.0215 18.1421 11.4082 18.1362C11.7949 18.1304 12.2285 18.1157 12.709 18.0923C13.1895 18.0688 13.6025 18.019 13.9482 17.9429C14.2939 17.8667 14.6074 17.7759 14.8887 17.6704C15.1816 17.5532 15.457 17.4126 15.7148 17.2485C15.9727 17.0845 16.2305 16.8794 16.4883 16.6333C16.7344 16.3872 16.9395 16.1353 17.1035 15.8774C17.2676 15.6196 17.4082 15.3384 17.5254 15.0337C17.6309 14.7524 17.7217 14.439 17.7979 14.0933C17.874 13.7476 17.918 13.3345 17.9297 12.854C17.9531 12.3735 17.9678 11.9399 17.9736 11.5532C17.9795 11.1665 17.9824 10.3638 17.9824 9.14502C17.9824 7.92627 17.9795 7.12354 17.9736 6.73682C17.9678 6.3501 17.9531 5.9165 17.9297 5.43604C17.918 4.95557 17.874 4.54248 17.7979 4.19678C17.7217 3.85107 17.6309 3.5376 17.5254 3.25635C17.4082 2.96338 17.2676 2.68506 17.1035 2.42139C16.9395 2.15771 16.7344 1.90283 16.4883 1.65674C16.2422 1.41064 15.9902 1.20557 15.7324 1.0415C15.4746 0.877441 15.1934 0.736816 14.8887 0.619629C14.6074 0.51416 14.2939 0.42334 13.9482 0.347168C13.6025 0.270996 13.1895 0.221191 12.709 0.197754C12.2285 0.174316 11.7949 0.159668 11.4082 0.153809C11.0215 0.147949 10.2188 0.14502 9 0.14502ZM9 4.52197C8.36719 4.52197 7.76953 4.64502 7.20703 4.89111C6.64453 5.12549 6.15234 5.45361 5.73047 5.87549C5.30859 6.29736 4.98047 6.78955 4.74609 7.35205C4.5 7.91455 4.37695 8.51221 4.37695 9.14502C4.37695 9.77783 4.5 10.3755 4.74609 10.938C4.98047 11.5005 5.30859 11.9927 5.73047 12.4146C6.15234 12.8364 6.64453 13.1646 7.20703 13.3989C7.76953 13.645 8.36719 13.7681 9 13.7681C9.63281 13.7681 10.2305 13.645 10.793 13.3989C11.3555 13.1646 11.8477 12.8364 12.2695 12.4146C12.6914 11.9927 13.0195 11.5005 13.2539 10.938C13.5 10.3755 13.623 9.77783 13.623 9.14502C13.623 8.51221 13.5 7.91455 13.2539 7.35205C13.0195 6.78955 12.6914 6.29736 12.2695 5.87549C11.8477 5.45361 11.3555 5.12549 10.793 4.89111C10.2305 4.64502 9.63281 4.52197 9 4.52197ZM9 12.1509C8.16797 12.1509 7.45898 11.8579 6.87305 11.272C6.28711 10.686 5.99414 9.97705 5.99414 9.14502C5.99414 8.31299 6.28711 7.604 6.87305 7.01807C7.45898 6.43213 8.16797 6.13916 9 6.13916C9.83203 6.13916 10.541 6.43213 11.127 7.01807C11.7129 7.604 12.0059 8.31299 12.0059 9.14502C12.0059 9.97705 11.7129 10.686 11.127 11.272C10.541 11.8579 9.83203 12.1509 9 12.1509ZM14.8887 4.34619C14.8887 4.63916 14.7832 4.89111 14.5723 5.10205C14.3613 5.31299 14.1035 5.41846 13.7988 5.41846C13.5059 5.41846 13.2539 5.31299 13.043 5.10205C12.832 4.89111 12.7266 4.63916 12.7266 4.34619C12.7266 4.0415 12.832 3.78369 13.043 3.57275C13.2539 3.36182 13.5059 3.25635 13.7988 3.25635C14.1035 3.25635 14.3613 3.36182 14.5723 3.57275C14.7832 3.78369 14.8887 4.0415 14.8887 4.34619Z" fill="white"/>
</svg>
