<svg width="18" height="15" viewBox="0 0 18 15" fill="none" xmlns="http://www.w3.org/2000/svg">
<path d="M17.9824 12.9282C17.9824 13.3618 17.8242 13.7368 17.5078 14.0532C17.1914 14.3696 16.8164 14.5278 16.3828 14.5278H1.59961C1.16602 14.5278 0.791016 14.3696 0.474609 14.0532C0.158203 13.7368 0 13.3618 0 12.9282V1.99463C0 1.56104 0.158203 1.18604 0.474609 0.869629C0.791016 0.553223 1.16602 0.39502 1.59961 0.39502H16.3828C16.8164 0.39502 17.1914 0.553223 17.5078 0.869629C17.8242 1.18604 17.9824 1.56104 17.9824 1.99463V12.9282ZM16.3828 1.67822H1.59961C1.51758 1.67822 1.44434 1.71045 1.37988 1.7749C1.31543 1.83936 1.2832 1.9126 1.2832 1.99463C1.2832 2.56885 1.41504 3.09912 1.67871 3.58545C1.94238 4.07178 2.30273 4.49072 2.75977 4.84229C3.42773 5.36963 4.09863 5.8999 4.77246 6.43311C5.44629 6.96631 6.11719 7.49658 6.78516 8.02393C7.05469 8.24658 7.40039 8.53076 7.82227 8.87646C8.24414 9.22217 8.63086 9.39502 8.98242 9.39502H9C9.35156 9.39502 9.73828 9.22217 10.1602 8.87646C10.582 8.53076 10.9277 8.24658 11.1973 8.02393C11.8652 7.49658 12.5361 6.96631 13.21 6.43311C13.8838 5.8999 14.5547 5.36963 15.2227 4.84229C15.5508 4.59619 15.8789 4.22998 16.207 3.74365C16.5352 3.25732 16.6992 2.80322 16.6992 2.38135C16.6992 2.25244 16.6934 2.10303 16.6816 1.93311C16.6699 1.76318 16.5703 1.67822 16.3828 1.67822ZM16.6992 5.21143C16.5938 5.32861 16.4824 5.44287 16.3652 5.5542C16.248 5.66553 16.125 5.77393 15.9961 5.87939C15.2812 6.43018 14.5664 6.98682 13.8516 7.54932C13.1367 8.11182 12.4277 8.68604 11.7246 9.27197C11.3496 9.58838 10.9336 9.90186 10.4766 10.2124C10.0195 10.5229 9.52734 10.6782 9 10.6782H8.98242C8.45508 10.6782 7.96289 10.5229 7.50586 10.2124C7.04883 9.90186 6.63281 9.58838 6.25781 9.27197C5.55469 8.68604 4.8457 8.11182 4.13086 7.54932C3.41602 6.98682 2.69531 6.43018 1.96875 5.87939C1.85156 5.77393 1.73438 5.66553 1.61719 5.5542C1.5 5.44287 1.38867 5.32861 1.2832 5.21143V12.9282C1.2832 13.0103 1.31543 13.0835 1.37988 13.1479C1.44434 13.2124 1.51758 13.2446 1.59961 13.2446H16.3828C16.4648 13.2446 16.5381 13.2124 16.6025 13.1479C16.667 13.0835 16.6992 13.0103 16.6992 12.9282V5.21143Z" fill="white"/>
</svg>
