<svg width="15" height="15" viewBox="0 0 15 15" fill="none" xmlns="http://www.w3.org/2000/svg">
<path d="M13.4324 0.408007C13.515 0.380468 13.5977 0.380468 13.7078 0.380468C14.176 0.380468 14.5615 0.766015 14.5891 1.23418V10.9279C14.5891 11.9193 13.4049 12.6904 11.9453 12.6904C10.4857 12.6904 9.30156 11.9193 9.30156 10.9279C9.30156 9.96406 10.4857 9.16543 11.9453 9.16543C12.2482 9.19297 12.5236 9.22051 12.8266 9.27559V4.2084L5.77656 6.27383V12.6904C5.77656 13.6818 4.59238 14.4529 3.13281 14.4529C1.67324 14.4529 0.489062 13.6818 0.489062 12.6904C0.489062 11.7266 1.67324 10.9279 3.13281 10.9279C3.43574 10.9555 3.71113 10.983 4.01406 11.0381V3.85039C4.01406 3.46484 4.26191 3.13437 4.61992 2.99668L13.4324 0.408007Z" fill="white"/>
</svg>
