<svg width="13" height="14" viewBox="0 0 13 14" fill="none" xmlns="http://www.w3.org/2000/svg">
<path d="M11.2227 1.94958C12.2891 2.88904 12.873 4.94568 12.4668 8.22107C12.0859 11.3695 9.69922 11.6742 9.29297 11.8265C9.08984 11.8773 7.49023 12.2836 5.4082 12.1058C5.17969 12.3851 4.875 12.7152 4.64648 12.9691C4.24023 13.4008 4.01172 13.807 3.58008 13.6801C3.22461 13.5531 3.25 13.0199 3.25 13.0199V11.725C0.203125 10.8617 0.253906 7.68787 0.279297 6.01208C0.304688 4.31091 0.634766 2.96521 1.57422 2.02576C3.25 0.502319 6.67773 0.705444 6.67773 0.705444C9.57227 0.705444 10.8926 1.67029 11.2227 1.94958ZM11.5527 7.96716C11.9082 5.25037 11.4512 3.39685 10.5371 2.60974C10.2578 2.38123 9.08984 1.61951 6.62695 1.61951C6.62695 1.61951 3.70703 1.41638 2.28516 2.7113C1.49805 3.49841 1.24414 4.64099 1.21875 6.06287C1.19336 7.45935 1.04102 10.1508 3.60547 10.8617C3.60547 10.8617 3.60547 12.8676 3.60547 13.0453C3.60547 13.3246 3.75781 13.3246 3.88477 13.1976C4.29102 12.766 5.61133 11.1918 5.61133 11.1918C7.38867 11.2933 8.78516 10.9379 8.9375 10.9125C9.29297 10.7855 11.248 10.6078 11.5527 7.96716ZM8.02344 5.93591C8.04883 6.13904 7.71875 6.16443 7.71875 5.93591C7.66797 5.37732 7.41406 5.12341 6.88086 5.07263C6.65234 5.07263 6.67773 4.74255 6.90625 4.74255C7.61719 4.79333 7.99805 5.19958 8.02344 5.93591ZM8.55664 6.21521C8.58203 5.1488 7.89648 4.28552 6.62695 4.20935C6.39844 4.18396 6.42383 3.85388 6.65234 3.87927C8.125 3.98083 8.91211 4.99646 8.88672 6.21521C8.88672 6.44373 8.55664 6.41833 8.55664 6.21521ZM9.75 6.54529C9.75 6.7738 9.41992 6.7738 9.41992 6.54529C9.39453 4.48865 8.02344 3.37146 6.34766 3.34607C6.14453 3.34607 6.14453 3.01599 6.34766 3.01599C8.22656 3.04138 9.72461 4.3363 9.75 6.54529ZM9.44531 9.03357V9.05896C9.19141 9.54138 8.6582 10.0746 8.15039 9.89685H8.125C7.5918 9.74451 6.34766 9.08435 5.53516 8.44958C5.12891 8.11951 4.74805 7.73865 4.46875 7.38318C4.21484 7.0531 3.93555 6.67224 3.68164 6.18982C3.14844 5.22498 3.02148 4.76794 3.02148 4.76794C2.84375 4.26013 3.37695 3.72693 3.85938 3.47302H3.88477C4.11328 3.34607 4.3418 3.37146 4.46875 3.57458C4.46875 3.57458 4.79883 3.93005 4.92578 4.13318C5.05273 4.28552 5.23047 4.56482 5.30664 4.71716C5.45898 4.99646 5.38281 5.27576 5.23047 5.40271L4.92578 5.65662C4.77344 5.78357 4.77344 6.01208 4.77344 6.01208C4.77344 6.01208 5.23047 7.71326 6.93164 8.1449C6.93164 8.1449 7.16016 8.17029 7.28711 8.01794L7.51562 7.71326C7.64258 7.56091 7.92188 7.45935 8.20117 7.61169C8.58203 7.81482 9.03906 8.1449 9.36914 8.44958C9.54688 8.60193 9.57227 8.80505 9.44531 9.03357Z" fill="#454545"/>
</svg>
