<svg width="12" height="12" viewBox="0 0 12 12" fill="none" xmlns="http://www.w3.org/2000/svg">
<path d="M9.91016 2.16833C10.9766 3.23474 11.6367 4.63123 11.6367 6.15466C11.6367 9.25232 9.04688 11.7914 5.92383 11.7914C4.98438 11.7914 4.07031 11.5375 3.23242 11.1058L0.261719 11.8676L1.04883 8.94763C0.566406 8.10974 0.287109 7.1449 0.287109 6.12927C0.287109 3.03162 2.82617 0.492554 5.92383 0.492554C7.44727 0.492554 8.86914 1.10193 9.91016 2.16833ZM5.92383 10.8265C8.51367 10.8265 10.6719 8.71912 10.6719 6.15466C10.6719 4.88513 10.1387 3.71716 9.25 2.82849C8.36133 1.93982 7.19336 1.4574 5.94922 1.4574C3.35938 1.4574 1.25195 3.56482 1.25195 6.12927C1.25195 7.01794 1.50586 7.88123 1.96289 8.64294L2.08984 8.82068L1.60742 10.5472L3.38477 10.0648L3.53711 10.1664C4.27344 10.598 5.08594 10.8265 5.92383 10.8265ZM8.51367 7.32263C8.64062 7.3988 8.74219 7.42419 8.76758 7.50037C8.81836 7.55115 8.81836 7.83044 8.69141 8.16052C8.56445 8.4906 8.00586 8.79529 7.75195 8.82068C7.29492 8.89685 6.93945 8.87146 6.05078 8.46521C4.62891 7.85583 3.71484 6.43396 3.63867 6.35779C3.5625 6.25623 3.08008 5.59607 3.08008 4.88513C3.08008 4.19958 3.43555 3.86951 3.5625 3.71716C3.68945 3.56482 3.8418 3.53943 3.94336 3.53943C4.01953 3.53943 4.12109 3.53943 4.19727 3.53943C4.29883 3.53943 4.40039 3.51404 4.52734 3.79333C4.62891 4.07263 4.93359 4.75818 4.95898 4.83435C4.98438 4.91052 5.00977 4.98669 4.95898 5.08826C4.70508 5.62146 4.40039 5.59607 4.55273 5.84998C5.11133 6.78943 5.64453 7.11951 6.48242 7.52576C6.60938 7.60193 6.68555 7.57654 6.78711 7.50037C6.86328 7.3988 7.14258 7.06873 7.21875 6.94177C7.32031 6.78943 7.42188 6.81482 7.54883 6.8656C7.67578 6.91638 8.36133 7.24646 8.51367 7.32263Z" fill="#454545"/>
</svg>
