<svg width="18" height="14" viewBox="0 0 18 14" fill="none" xmlns="http://www.w3.org/2000/svg">
<path d="M14.625 0.39502H3.375C2.44922 0.39502 1.65527 0.726074 0.993164 1.38818C0.331055 2.05029 0 2.84424 0 3.77002V10.52C0 11.4458 0.331055 12.2397 0.993164 12.9019C1.65527 13.564 2.44922 13.895 3.375 13.895H14.625C15.5508 13.895 16.3447 13.564 17.0068 12.9019C17.6689 12.2397 18 11.4458 18 10.52V3.77002C18 2.84424 17.6689 2.05029 17.0068 1.38818C16.3447 0.726074 15.5508 0.39502 14.625 0.39502ZM6.75 11.645V2.64502L12.375 7.14502L6.75 11.645Z" fill="white"/>
</svg>
